<svg  viewBox="0 0 40 40" fill="none"
    xmlns="http://www.w3.org/2000/svg">
    <g>
        <path id="Vector" d="M21.4996 20.494L32.7556 9.22699C32.9541 9.02743 33.0655 8.75731 33.0654 8.47578C33.0652 8.19426 32.9534 7.92428 32.7546 7.72499C32.3566 7.32899 31.6556 7.32699 31.2536 7.72699L20.0006 18.994L8.74357 7.72399C8.34357 7.32899 7.64257 7.33099 7.24457 7.72599C7.14578 7.82438 7.06758 7.94147 7.01453 8.07041C6.96147 8.19935 6.93463 8.33756 6.93557 8.47699C6.93557 8.76099 7.04557 9.02699 7.24457 9.22399L18.5006 20.493L7.24557 31.763C7.04696 31.9629 6.93573 32.2333 6.93629 32.5151C6.93685 32.7969 7.04916 33.0669 7.24857 33.266C7.44157 33.457 7.71457 33.567 7.99657 33.567H8.00257C8.28557 33.566 8.55857 33.455 8.74757 33.262L20.0006 21.995L31.2576 33.265C31.4566 33.463 31.7226 33.573 32.0046 33.573C32.144 33.5734 32.2822 33.5462 32.4111 33.493C32.54 33.4399 32.6571 33.3617 32.7557 33.2631C32.8543 33.1645 32.9324 33.0474 32.9856 32.9185C33.0388 32.7896 33.066 32.6514 33.0656 32.512C33.0656 32.229 32.9556 31.962 32.7556 31.765L21.4996 20.494Z" />
    </g>
</svg>
