<svg width="18" height="23" viewBox="0 0 18 23" xmlns="http://www.w3.org/2000/svg">
<path d="M16.6167 19.3684C16.6167 20.3316 16.2585 21.2553 15.6208 21.9363C14.9832 22.6174 14.1184 23 13.2167 23H5.28333C4.3816 23 3.51679 22.6174 2.87917 21.9363C2.24155 21.2553 1.88333 20.3316 1.88333 19.3684V4.84211H0.75V1.21053H5.85L6.98333 0H11.5167L12.65 1.21053H17.75V4.84211H16.6167V19.3684ZM3.01667 4.84211V19.3684C3.01667 20.0105 3.25548 20.6263 3.68056 21.0804C4.10564 21.5344 4.68218 21.7895 5.28333 21.7895H13.2167C13.8178 21.7895 14.3944 21.5344 14.8194 21.0804C15.2445 20.6263 15.4833 20.0105 15.4833 19.3684V4.84211H3.01667ZM16.6167 3.63158V2.42105H12.0833L10.95 1.21053H7.55L6.41667 2.42105H1.88333V3.63158H16.6167ZM5.28333 7.26316H6.41667V19.3684H5.28333V7.26316ZM12.0833 7.26316H13.2167V19.3684H12.0833V7.26316Z"/>
</svg>
