<svg xmlns="http://www.w3.org/2000/svg" width="42" height="45" viewBox="0 0 44 48" fill="none">
    <path d="M42.9992 21.2V24.5C42.9992 34.8708 42.9992 40.0562 39.9228 43.277C36.8505 46.5 31.8988 46.5 21.9996 46.5C12.1004 46.5 7.15079 46.5 4.07434 43.277C1 40.0584 1 34.8708 1 24.5C1 14.1292 1 8.9438 4.07434 5.7208C7.15289 2.5 12.1004 2.5 21.9996 2.5H25.1496" stroke="#303030" stroke-width="1.7" stroke-linecap="round"/>
    <path d="M31.8985 4.84676L33.2455 3.35407C34.3172 2.16671 35.7708 1.49978 37.2863 1.5C38.8018 1.50022 40.2551 2.16756 41.3266 3.35522C42.3981 4.54287 42.9999 6.15356 42.9997 7.83295C42.9995 9.51234 42.3973 11.1229 41.3256 12.3102L39.9765 13.8029C39.9765 13.8029 37.1164 13.6166 34.5925 10.8175C32.0666 8.02074 31.8985 4.84906 31.8985 4.84906L25.7081 11.7076L19.5178 18.5662C18.6793 19.4954 18.2601 19.96 17.8989 20.4729C17.4734 21.0755 17.1102 21.731 16.8113 22.4232C16.5602 23.0097 16.3734 23.633 15.9977 24.8796L14.796 28.8701M14.796 28.8701L14.0197 31.4507C13.9284 31.7517 13.9147 32.0749 13.9801 32.384C14.0455 32.6931 14.1874 32.9759 14.3899 33.2006C14.5924 33.4252 14.8475 33.5828 15.1264 33.6556C15.4053 33.7284 15.697 33.7135 15.9687 33.6127L18.2995 32.7525M14.796 28.8701L18.2995 32.7525M39.9785 13.8006L27.5979 27.52C26.7594 28.4492 26.3401 28.9138 25.8773 29.314C25.3318 29.7854 24.7417 30.1895 24.1172 30.5192C23.588 30.7975 23.0255 31.0045 21.9006 31.4208L18.2995 32.7525" stroke="#303030" stroke-width="1.7"/>
</svg>