<svg width="30" height="30" viewBox="0 0 30 30" fill="none"
    xmlns="http://www.w3.org/2000/svg">
    <g >
        <path id="Vector" d="M9.66602 15.5H19.3327M10.8743 10.5H7.24935C5.96747 10.5 4.73809 11.0268 3.83167 11.9645C2.92524 12.9021 2.41602 14.1739 2.41602 15.5C2.41602 16.8261 2.92524 18.0979 3.83167 19.0355C4.73809 19.9732 5.96747 20.5 7.24935 20.5H10.8743M18.1243 10.5H21.7493C23.0312 10.5 24.2606 11.0268 25.167 11.9645C26.0735 12.9021 26.5827 14.1739 26.5827 15.5C26.5827 16.8261 26.0735 18.0979 25.167 19.0355C24.2606 19.9732 23.0312 20.5 21.7493 20.5H18.1243" stroke="#303030" stroke-width="1.3" stroke-linecap="round" stroke-linejoin="round"/>
    </g>
</svg>
