<svg width="32" height="32" viewBox="0 0 32 32" fill="none"
    xmlns="http://www.w3.org/2000/svg">
    <g >
        <path id="Vector" d="M25.0827 28.4306H7.91732C7.08562 28.4775 6.26904 28.1942 5.64492 27.6425C5.02081 27.0908 4.63956 26.3151 4.58398 25.484V10.8173C4.63922 9.98592 5.02033 9.20991 5.64448 8.65791C6.26863 8.10591 7.0854 7.82252 7.91732 7.86932H8.53332C8.71013 7.86932 8.8797 7.93955 9.00472 8.06458C9.12975 8.1896 9.19998 8.35917 9.19998 8.53598C9.19998 8.71279 9.12975 8.88236 9.00472 9.00739C8.8797 9.13241 8.71013 9.20265 8.53332 9.20265H7.91732C7.43916 9.15753 6.96232 9.30115 6.58862 9.60285C6.21493 9.90454 5.97401 10.3404 5.91732 10.8173V25.484C5.97433 25.9607 6.21539 26.3962 6.58905 26.6976C6.9627 26.999 7.43937 27.1425 7.91732 27.0973H25.0827C25.5606 27.1425 26.0373 26.999 26.4109 26.6976C26.7846 26.3962 27.0256 25.9607 27.0827 25.484V10.8173C27.026 10.3404 26.785 9.90454 26.4113 9.60285C26.0377 9.30115 25.5608 9.15753 25.0827 9.20265H24.4667C24.2898 9.20265 24.1203 9.13241 23.9952 9.00739C23.8702 8.88236 23.8 8.71279 23.8 8.53598C23.8 8.35917 23.8702 8.1896 23.9952 8.06458C24.1203 7.93955 24.2898 7.86932 24.4667 7.86932H25.0827C25.9146 7.82252 26.7313 8.10591 27.3555 8.65791C27.9796 9.20991 28.3607 9.98592 28.416 10.8173V25.484C28.3604 26.3151 27.9792 27.0908 27.355 27.6425C26.7309 28.1942 25.9144 28.4775 25.0827 28.4306Z" fill="black"/>
        <path id="Vector_2" d="M20.9728 14.6227L16.9728 18.6227C16.8497 18.7483 16.682 18.8202 16.5061 18.8227C16.4169 18.8226 16.3286 18.8049 16.2462 18.7706C16.1638 18.7362 16.089 18.686 16.0261 18.6227L12.0261 14.6227C11.9006 14.4971 11.8301 14.3269 11.8301 14.1493C11.8301 13.9718 11.9006 13.8015 12.0261 13.676C12.1517 13.5505 12.3219 13.4799 12.4995 13.4799C12.677 13.4799 12.8473 13.5505 12.9728 13.676L15.8261 16.528V5.236C15.8289 5.06005 15.9 4.89207 16.0244 4.76764C16.1489 4.64321 16.3169 4.57209 16.4928 4.56934C16.6696 4.56934 16.8392 4.63957 16.9642 4.7646C17.0892 4.88962 17.1595 5.05919 17.1595 5.236V16.556L20.0261 13.676C20.0883 13.6138 20.1621 13.5645 20.2433 13.5309C20.3245 13.4973 20.4116 13.4799 20.4995 13.4799C20.5874 13.4799 20.6744 13.4973 20.7556 13.5309C20.8369 13.5645 20.9106 13.6138 20.9728 13.676C21.035 13.7382 21.0843 13.812 21.1179 13.8932C21.1516 13.9744 21.1689 14.0614 21.1689 14.1493C21.1689 14.2372 21.1516 14.3243 21.1179 14.4055C21.0843 14.4867 21.035 14.5605 20.9728 14.6227Z" fill="black"/>
    </g>
</svg>
