<svg width="12" height="22" viewBox="0 0 12 22" fill="none"
    xmlns="http://www.w3.org/2000/svg">
    <path fill-rule="evenodd" clip-rule="evenodd" d="M0.5 2.06653C0.5 0.860934 1.45667 0 2.5 0C3.54333 0 4.5 0.860934 4.5 2.06653V14.0668C4.5 15.2724 3.54333 16.1333 2.5 16.1333C1.45667 16.1333 0.5 15.2724 0.5 14.0668V2.06653ZM0.5 19.8C0.5 19.2165 0.710713 18.6569 1.08579 18.2444C1.46086 17.8318 1.96957 17.6 2.5 17.6C3.03043 17.6 3.53914 17.8318 3.91421 18.2444C4.28929 18.6569 4.5 19.2165 4.5 19.8C4.5 20.3835 4.28929 20.9431 3.91421 21.3556C3.53914 21.7682 3.03043 22 2.5 22C1.96957 22 1.46086 21.7682 1.08579 21.3556C0.710713 20.9431 0.5 20.3835 0.5 19.8Z" fill="#F7D045"/>
    <path fill-rule="evenodd" clip-rule="evenodd" d="M7.5 2.06653C7.5 0.860934 8.45667 0 9.5 0C10.5433 0 11.5 0.860934 11.5 2.06653V14.0668C11.5 15.2724 10.5433 16.1333 9.5 16.1333C8.45667 16.1333 7.5 15.2724 7.5 14.0668V2.06653ZM7.5 19.8C7.5 19.2165 7.71071 18.6569 8.08579 18.2444C8.46086 17.8318 8.96957 17.6 9.5 17.6C10.0304 17.6 10.5391 17.8318 10.9142 18.2444C11.2893 18.6569 11.5 19.2165 11.5 19.8C11.5 20.3835 11.2893 20.9431 10.9142 21.3556C10.5391 21.7682 10.0304 22 9.5 22C8.96957 22 8.46086 21.7682 8.08579 21.3556C7.71071 20.9431 7.5 20.3835 7.5 19.8Z" fill="#F7D045"/>
</svg>
