<svg width="12" height="24" viewBox="0 0 12 24"
    xmlns="http://www.w3.org/2000/svg">
    <path fill-rule="evenodd" clip-rule="evenodd" d="M0.5 2.56653C0.5 1.36093 1.45667 0.5 2.5 0.5C3.54333 0.5 4.5 1.36093 4.5 2.56653V14.5668C4.5 15.7724 3.54333 16.6333 2.5 16.6333C1.45667 16.6333 0.5 15.7724 0.5 14.5668V2.56653ZM0.5 20.3C0.5 19.7165 0.710713 19.1569 1.08579 18.7444C1.46086 18.3318 1.96957 18.1 2.5 18.1C3.03043 18.1 3.53914 18.3318 3.91421 18.7444C4.28929 19.1569 4.5 19.7165 4.5 20.3C4.5 20.8835 4.28929 21.4431 3.91421 21.8556C3.53914 22.2682 3.03043 22.5 2.5 22.5C1.96957 22.5 1.46086 22.2682 1.08579 21.8556C0.710713 21.4431 0.5 20.8835 0.5 20.3Z" />
    <path fill-rule="evenodd" clip-rule="evenodd" d="M7.5 2.56653C7.5 1.36093 8.45667 0.5 9.5 0.5C10.5433 0.5 11.5 1.36093 11.5 2.56653V14.5668C11.5 15.7724 10.5433 16.6333 9.5 16.6333C8.45667 16.6333 7.5 15.7724 7.5 14.5668V2.56653ZM7.5 20.3C7.5 19.7165 7.71071 19.1569 8.08579 18.7444C8.46086 18.3318 8.96957 18.1 9.5 18.1C10.0304 18.1 10.5391 18.3318 10.9142 18.7444C11.2893 19.1569 11.5 19.7165 11.5 20.3C11.5 20.8835 11.2893 21.4431 10.9142 21.8556C10.5391 22.2682 10.0304 22.5 9.5 22.5C8.96957 22.5 8.46086 22.2682 8.08579 21.8556C7.71071 21.4431 7.5 20.8835 7.5 20.3Z" />
</svg>
